# xmcd
#
# Track frame offsets:
# 150
# 8515
# 19965
# 29977
# 40135
# 51950
# 64482
# 72190
# 83105
# 92550
# 105007
# 114737
# 123990
# 133625
#
# Disc length: 1925 seconds
#
# Revision: 1
# Processed by: cddbd v1.4PL0 Copyright (c) Steve Scherf et al.
# Submitted via: CedeCatalogueitor 2.5 http://usuarios.lycos.es/kakasboy
#
DISCID=b907830e
DTITLE=Jerry Lee Lewis - Country Greatest Hits
DYEAR=1900
DGENRE=
TTITLE0=Save The Last Dance For Me
TTITLE1=Love On Broadway
TTITLE2=Your Cheatin' Heart
TTITLE3=It'll Be Me
TTITLE4=I'm Sorry I'm Not Sorry
TTITLE5=Wild Side Of Life
TTITLE6=Waitin' For A Train
TTITLE7=C.C. Rider
TTITLE8=Silver Threads
TTITLE9=Someday (You'll Want Me To Want You)
TTITLE10=Night Train To Menphis
TTITLE11=Love Letters In The Sand
TTITLE12=Singing The Blues
TTITLE13=Will The Circle Be Unbroken
EXTD=
EXTT0=
EXTT1=
EXTT2=
EXTT3=
EXTT4=
EXTT5=
EXTT6=
EXTT7=
EXTT8=
EXTT9=
EXTT10=
EXTT11=
EXTT12=
EXTT13=
PLAYORDER=
